<?xml version="1.0" encoding="UTF-8"?>
<svg version="1.1" xmlns="http://www.w3.org/2000/svg" width="3000" height="2000">
<path d="M0 0 C30.69 0 61.38 0 93 0 C97.49972068 10.12437152 97.49972068 10.12437152 98.98852539 14.32128906 C99.32807755 15.27283875 99.6676297 16.22438843 100.01747131 17.20477295 C100.37393234 18.21485413 100.73039337 19.2249353 101.09765625 20.265625 C101.48396713 21.3509552 101.87027802 22.4362854 102.26829529 23.55450439 C103.53618522 27.11855694 104.79927469 30.68429179 106.0625 34.25 C106.95792099 36.769028 107.85366207 39.28793906 108.75 41.80664062 C109.2069496 43.09081679 109.66388925 44.37499649 110.12081909 45.65917969 C110.34851864 46.29911865 110.57621819 46.93905762 110.81081772 47.59838867 C111.50739175 49.55667381 112.20348918 51.51512774 112.89944458 53.47363281 C117.0234715 65.07788979 121.17677766 76.67155706 125.33786011 88.26257324 C132.24411714 107.50165235 139.12836295 126.74853135 146 146 C152.50857597 164.23357139 159.02741497 182.46341198 165.5625 200.6875 C165.95293488 201.77630463 166.34336975 202.86510925 166.74563599 203.98690796 C169.49659723 211.65811565 172.24821915 219.32908628 175 227 C178.14629479 235.77066788 181.29224456 244.54145934 184.4375 253.3125 C184.82286926 254.3871048 185.20823853 255.46170959 185.60528564 256.56887817 C190.24494992 269.50787391 194.87736726 282.44944162 199.5 295.39453125 C199.72860277 296.03469744 199.95720554 296.67486362 200.19273567 297.33442879 C202.6306828 304.16181491 205.06765255 310.98954923 207.50366211 317.81762695 C207.90887085 318.95306442 208.31407959 320.08850189 208.73156738 321.25834656 C209.482179 323.3616889 210.23252828 325.46512489 210.98254395 327.56867981 C211.32209106 328.52006332 211.66163818 329.47144684 212.01147461 330.45166016 C212.30058212 331.26220856 212.58968964 332.07275696 212.88755798 332.90786743 C214.57914408 337.60978302 216.29232822 342.3039026 218 347 C218.33 232.49 218.66 117.98 219 0 C251.67 0 284.34 0 318 0 C318 192.72 318 385.44 318 584 C309.04025553 585.79194889 300.44491131 587.48195044 291.42578125 588.46484375 C290.38911316 588.5831102 289.35244507 588.70137665 288.28436279 588.82322693 C284.96107183 589.20082852 281.63685591 589.56940336 278.3125 589.9375 C276.0037676 590.19757149 273.6950929 590.45815575 271.38647461 590.71923828 C266.77302777 591.23984842 262.15917968 591.75664789 257.54492188 592.27001953 C252.49786905 592.8317982 247.45174808 593.40123357 242.40620422 593.97639465 C239.0606096 594.35769496 235.71472768 594.73641962 232.3687439 595.11428833 C230.84346293 595.28671526 229.31825395 595.45978018 227.79312134 595.6335144 C225.70743592 595.87045747 223.62137644 596.1037568 221.53515625 596.3359375 C219.80857788 596.53002197 219.80857788 596.53002197 218.04711914 596.72802734 C215.33920867 596.9697237 212.71534281 597.01998488 210 597 C209.79527573 596.39391403 209.59055145 595.78782806 209.37962341 595.16337585 C206.73545227 587.33699917 204.08775237 579.51181942 201.4375 571.6875 C201.1122937 570.72734985 201.1122937 570.72734985 200.78051758 569.74780273 C195.26632791 553.47033901 189.7060663 537.21139275 184 521 C176.32121483 499.17583853 168.97534659 477.23943793 161.59561157 455.31289673 C154.72901454 434.91200306 147.85891916 414.51681714 140.6946106 394.21807861 C132.63358025 371.3505878 124.97077653 348.34456492 117.24270535 325.36298943 C116.09118267 321.93896948 114.93886184 318.51521832 113.78654671 315.091465 C112.99447178 312.73652541 112.20389113 310.38108822 111.41343689 308.02560425 C110.91623009 306.54748488 110.41896435 305.06938534 109.92163086 303.59130859 C109.71426048 302.97181587 109.50689011 302.35232315 109.29323578 301.71405792 C106.6186886 293.77668498 103.788442 285.90058566 101 278 C100.67 387.89 100.34 497.78 100 611 C90.1 612.32 80.2 613.64 70 615 C64.42533362 615.77699209 58.85242032 616.55877434 53.28125 617.359375 C51.90363861 617.55567529 50.52599267 617.75173321 49.14831543 617.9475708 C43.48122017 618.75328426 37.81441754 619.56098953 32.1484375 620.37451172 C28.61304671 620.88195689 25.0770981 621.38534379 21.54075623 621.88611603 C19.58277238 622.16454833 17.62542121 622.44741832 15.66809082 622.73040771 C14.48404663 622.89768372 13.30000244 623.06495972 12.08007812 623.23730469 C11.04693481 623.3851239 10.0137915 623.53294312 8.94934082 623.6852417 C6 624 6 624 0 624 C0 418.08 0 212.16 0 0 Z " fill="#D81E25" transform="translate(346,688)"/>
<path d="M0 0 C34.98 0 69.96 0 106 0 C116.38652675 26.27180295 126.75310622 52.54723332 137.00292969 78.87207031 C140.05774837 86.7166587 143.11556861 94.56007557 146.17477417 102.4029541 C147.17576623 104.96990977 148.17592655 107.53718841 149.17602539 110.10449219 C152.38950838 118.3483793 155.62211015 126.58400299 158.89453125 134.8046875 C159.50956173 136.3528486 160.1245529 137.90102531 160.73950195 139.44921875 C161.88466777 142.33175158 163.03645481 145.21151438 164.19213867 148.08984375 C164.70125167 149.36969521 165.21013621 150.64963758 165.71875 151.9296875 C166.16154297 153.03554199 166.60433594 154.14139648 167.06054688 155.28076172 C168 158 168 158 168 161 C168.66 161 169.32 161 170 161 C170.17695404 160.44783813 170.35390808 159.89567627 170.53622437 159.32678223 C172.27996227 153.97891274 174.23703231 148.77865906 176.4140625 143.59375 C176.74053268 142.80886703 177.06700287 142.02398407 177.40336609 141.21531677 C178.47433719 138.64232243 179.54968214 136.07118038 180.625 133.5 C181.38859639 131.66753716 182.15185493 129.8349335 182.91479492 128.00219727 C184.49611683 124.204218 186.07887988 120.40684408 187.66259766 116.60986328 C189.84856523 111.36653696 192.02590601 106.11967636 194.19921875 100.87109375 C194.53856445 100.05160751 194.87791016 99.23212128 195.22753906 98.38780212 C195.91251855 96.73352988 196.59747544 95.07924827 197.28240967 93.42495728 C202.24061057 81.45191711 207.21195836 69.48440317 212.19921875 57.5234375 C212.64066727 56.46461868 213.08211578 55.40579987 213.53694153 54.31489563 C215.67748852 49.18135585 217.81903567 44.04823657 219.9621582 38.91577148 C220.75603774 37.01286458 221.54990233 35.10995144 222.34375 33.20703125 C222.68077438 32.40087372 223.01779877 31.59471619 223.36503601 30.76412964 C227.63197925 20.53169866 231.80201693 10.2617364 236 0 C271.64 0 307.28 0 344 0 C343.29617087 3.51914564 342.70843841 6.02135115 341.36791992 9.2121582 C341.03132858 10.01978104 340.69473724 10.82740387 340.34794617 11.65950012 C339.79479485 12.96693428 339.79479485 12.96693428 339.23046875 14.30078125 C338.84264725 15.22787399 338.45482574 16.15496674 338.05525208 17.1101532 C336.77023562 20.17939599 335.47881146 23.245901 334.1875 26.3125 C333.2801099 28.47700859 332.37321682 30.64172559 331.46679688 32.80664062 C329.58184531 37.30761557 327.69474968 41.80768256 325.80615234 46.30712891 C321.93039304 55.54530172 318.08058984 64.79426007 314.23086548 74.04330444 C312.15516813 79.0293937 310.07747534 84.01465136 308 89 C307.16665728 90.99999609 306.33332394 92.99999609 305.5 95 C280.49999991 155.00000021 280.49999991 155.00000021 279.25003052 157.99992371 C278.41659257 160.00017682 277.58315751 162.00043113 276.74972534 164.00068665 C274.66801629 168.99682394 272.58625723 173.9929404 270.50439453 178.98901367 C266.73504058 188.03488251 262.96606609 197.08090856 259.19892883 206.12770081 C250.46071577 227.11250145 241.71392536 248.09364706 232.9375 269.0625 C232.5534198 269.98036285 232.1693396 270.89822571 231.77362061 271.84390259 C230.69190036 274.4286431 229.60972109 277.01319084 228.52734375 279.59765625 C228.2126564 280.34956238 227.89796906 281.10146851 227.57374573 281.87615967 C227.27733688 282.58355286 226.98092804 283.29094604 226.67553711 284.01977539 C226.26064529 285.03456467 226.26064529 285.03456467 225.83737183 286.06985474 C225.03828912 287.91174343 224.09885544 289.6908233 223.15454102 291.46264648 C220.70877881 298.9561226 224.80293238 306.63275375 227.54296875 313.671875 C227.89906723 314.60238174 228.25516571 315.53288849 228.62205505 316.49159241 C229.39702707 318.51469658 230.17482563 320.53671981 230.95513916 322.55776978 C232.65765749 326.96786648 234.34615116 331.38329329 236.0355835 335.79841614 C236.94102697 338.16439067 237.84716978 340.53009768 238.75396729 342.89555359 C243.85083071 356.19762437 248.87137213 369.52824891 253.88988495 382.86002731 C255.12141057 386.13097127 256.35391282 389.40154712 257.58642578 392.67211914 C257.82900494 393.31583308 258.07158409 393.95954702 258.32151413 394.62276745 C258.80782587 395.91325469 259.29413999 397.20374103 259.78045654 398.49422646 C260.49978385 400.40312278 261.21902342 402.31205214 261.93823242 404.22099304 C266.14189579 415.37816744 270.3495817 426.53381694 274.5625 437.6875 C275.06515884 439.01837143 275.06515884 439.01837143 275.57797241 440.37612915 C279.71724477 451.33368195 283.86625588 462.28751052 288.0234375 473.23828125 C288.46093323 474.39075851 288.89842896 475.54323578 289.34918213 476.7306366 C292.08002133 483.92423511 292.08002133 483.92423511 294.81103516 491.11776733 C300.46781481 506.01956564 306.10861419 520.92726651 311.7265625 535.84375 C312.01117655 536.59939743 312.2957906 537.35504486 312.58902931 538.1335907 C315.37807825 545.53890491 318.16594951 552.94466045 320.95092106 560.35150909 C321.98410357 563.09894144 323.01790182 565.8461418 324.05187416 568.59327698 C324.55888039 569.9406321 325.06565651 571.28807384 325.57219505 572.63560486 C328.56991617 580.60893605 331.59833184 588.56949469 334.66748047 596.515625 C335.27648112 598.09552586 335.88544453 599.67544107 336.49436951 601.25537109 C337.66083582 604.28135077 338.83390438 607.30465972 340.01063538 610.32666016 C340.53849593 611.69424446 341.06613162 613.06191559 341.59350586 614.4296875 C342.29170692 616.22768799 342.29170692 616.22768799 343.00401306 618.06201172 C344 621 344 621 344 624 C335.47372638 623.45254365 327.10157709 622.53700254 318.66796875 621.1796875 C317.52820084 621.00056824 316.38843292 620.82144897 315.21412659 620.63690186 C305.14959171 619.04873249 295.0934058 617.40702926 285.03762817 615.76443481 C278.18951225 614.65207828 271.33857659 613.60013669 264.4667511 612.64511108 C260.74594887 612.12380176 257.03119229 611.56603846 253.31680298 611.0010376 C251.61972702 610.75241533 249.92001627 610.52109822 248.21810913 610.30804443 C245.88097109 610.01346557 243.56059354 609.65898104 241.234375 609.2890625 C239.30416504 609.02150146 239.30416504 609.02150146 237.33496094 608.74853516 C232.04771627 605.97640878 231.00110589 601.41334233 229 596 C228.23816704 594.09877612 227.47628548 592.19757171 226.71435547 590.29638672 C225.92860571 588.25877966 225.14637397 586.21981339 224.3671875 584.1796875 C223.93762756 583.06332916 223.50806763 581.94697083 223.06549072 580.79678345 C221.90648393 577.78332943 220.75032612 574.76880142 219.59531403 571.7538147 C218.37463319 568.56987962 217.14990219 565.38750388 215.92529297 562.20507812 C215.42604702 560.90753516 214.92680999 559.60998876 214.42758179 558.31243896 C214.1794511 557.66752251 213.93132042 557.02260605 213.67567062 556.35814667 C212.91980258 554.39304964 212.16437528 552.42778374 211.40908813 550.46246338 C206.67037092 538.13285632 201.90306269 525.81440857 197.125 513.5 C196.73853302 512.50374603 196.35206604 511.50749207 195.95388794 510.48104858 C190.7556321 497.08213245 185.54925336 483.68637153 180.32928467 470.29589844 C179.6700562 468.60475325 179.01106528 466.91351543 178.35235596 465.22216797 C173.63792589 453.1199888 168.84102345 441.05208524 164 429 C163.75040024 429.58387985 163.50080048 430.1677597 163.24363708 430.76933289 C159.97709971 438.40965299 156.70818335 446.0489539 153.4375 453.6875 C153.16948326 454.31344307 152.90146652 454.93938614 152.62532806 455.58429718 C144.50936491 474.5367289 136.34525734 493.46751429 128.125 512.375 C121.00422249 528.75489748 113.90910336 545.14517166 106.875 561.5625 C106.31912201 562.8591861 106.31912201 562.8591861 105.75201416 564.18206787 C101.78658048 573.43504429 97.8447483 582.69607682 94 592 C85.33054113 591.31507267 76.72040948 590.23880285 68.09771729 589.13000488 C54.96159838 587.4432848 41.81792516 585.84611377 28.65625 584.37109375 C27.44915375 584.23576736 26.2420575 584.10044098 24.99838257 583.96101379 C18.99783483 583.29015867 12.99659997 582.62601044 6.99462891 581.96801758 C4.79068499 581.72351618 2.58674594 581.47897081 0.3828125 581.234375 C-0.63929321 581.12415512 -1.66139893 581.01393524 -2.71447754 580.90037537 C-3.64771851 580.7962886 -4.58095947 580.69220184 -5.54248047 580.58496094 C-6.35893036 580.49567322 -7.17538025 580.4063855 -8.01657104 580.31439209 C-10 580 -10 580 -12 579 C-11.33018578 573.8686633 -9.13177167 569.45954387 -7.01953125 564.79296875 C-6.61521378 563.88853531 -6.2108963 562.98410187 -5.79432678 562.05226135 C-4.92473484 560.10843166 -4.05284515 558.16562858 -3.17889404 556.22375488 C-1.33276173 552.12147686 0.50220514 548.01423864 2.33770752 543.90719604 C3.26159054 541.84015488 4.18602978 539.77336224 5.11102295 537.70681763 C8.82511107 529.40632387 12.49157335 521.0860623 16.125 512.75 C16.67629258 511.48646543 17.22764395 510.22295651 17.77905273 508.95947266 C18.62245075 507.02688344 19.46581788 505.09428092 20.30891418 503.16156006 C24.107975 494.45545992 27.93018866 485.75950991 31.75 477.0625 C32.51579551 475.3186883 33.28158325 473.57487319 34.04736328 471.83105469 C35.59334215 468.31067347 37.13941826 464.79033498 38.68554688 461.27001953 C42.0842149 453.53152763 45.48158217 445.79246468 48.87902832 438.05343628 C50.75263044 433.78559999 52.62631969 429.51780196 54.5 425.25 C55.25000042 423.54166685 56.00000042 421.83333352 56.75 420.125 C58.25 416.70833333 59.75 413.29166667 61.25 409.875 C61.62124496 409.02938507 61.99248993 408.18377014 62.37498474 407.31253052 C63.12503144 405.60409363 63.87508231 403.89565857 64.62513733 402.18722534 C66.49945689 397.91799131 68.3737043 393.64872563 70.24780273 389.37939453 C76.29792807 375.59711622 76.29792807 375.59711622 79.26611328 368.84277344 C79.6404097 367.99100021 80.01470612 367.13922699 80.40034485 366.26164246 C81.15712313 364.53979914 81.9141118 362.81804828 82.67131042 361.09638977 C84.54518669 356.83445972 86.41456355 352.57066788 88.27416992 348.30249023 C91.70063525 340.44732781 95.15883329 332.6129696 98.75624084 324.83428955 C100.40021808 321.27213636 102.02115046 317.69972998 103.63986206 314.1260376 C104.4125366 312.43687152 105.19626094 310.75270989 105.99172974 309.07415771 C107.09213599 306.75021297 108.15286314 304.41160923 109.20703125 302.06640625 C109.53717224 301.39522263 109.86731323 300.724039 110.2074585 300.03251648 C112.81561123 294.05223056 111.30048204 289.88991474 109 284 C108.71436691 283.2168895 108.42873383 282.43377899 108.13444519 281.62693787 C107.2286615 279.17446406 106.28160928 276.74136339 105.32421875 274.30859375 C104.78822807 272.93218468 104.78822807 272.93218468 104.2414093 271.52796936 C103.46690637 269.54028655 102.69065972 267.55328246 101.9128418 265.56689453 C100.21830013 261.2392127 98.53233263 256.90820525 96.84573364 252.5774231 C95.94811538 250.27279082 95.0500565 247.96833012 94.15158081 245.66403198 C89.53451782 233.81949632 84.95882375 221.95911023 80.3866272 210.09719849 C73.11133817 191.22359013 65.81847949 172.35690114 58.5 153.5 C51.18005315 134.63931803 43.88856877 115.76776933 36.6083374 96.89172363 C29.20922294 77.70830336 21.78714896 58.53390585 14.33984375 39.36914062 C12.22107685 33.91487524 10.10909753 28.45801062 8 23 C7.62113647 22.021521 7.24227295 21.04304199 6.85192871 20.03491211 C5.71796536 17.10278482 4.58879286 14.16885638 3.4609375 11.234375 C3.11253815 10.33511292 2.76413879 9.43585083 2.40518188 8.50933838 C2.08890839 7.68351257 1.77263489 6.85768677 1.44677734 6.00683594 C1.16651703 5.27914001 0.88625671 4.55144409 0.59750366 3.80169678 C0 2 0 2 0 0 Z " fill="#D81E25" transform="translate(2310,688)"/>
<path d="M0 0 C89.43 0 178.86 0 271 0 C271 32.34 271 64.68 271 98 C214.24 98 157.48 98 99 98 C99 140.9 99 183.8 99 228 C132.42961842 227.3444794 132.42961842 227.3444794 165.85913086 226.68359375 C172.41125488 226.55664062 172.41125488 226.55664062 175.50489807 226.49731445 C177.60798354 226.45653743 179.71105118 226.4148323 181.81410217 226.37231445 C182.8893364 226.35064209 183.96457062 226.32896973 185.0723877 226.30664062 C186.01313896 226.28742554 186.95389023 226.26821045 187.92314911 226.24841309 C201.6271901 226.00166978 215.28455519 226 229 226 C229 258.67 229 291.34 229 325 C204.3776476 325.24956592 204.3776476 325.24956592 193.70507812 325.35546875 C186.48444836 325.42712578 179.26382205 325.49904641 172.04321289 325.57275391 C166.20763086 325.63230418 160.37203655 325.69049144 154.53643227 325.74781799 C152.3342473 325.76967468 150.13206678 325.79198438 147.92989159 325.81480408 C131.61827299 325.9833853 115.31384113 326 99 326 C99 373.52 99 421.04 99 470 C136.2265454 467.46237835 136.2265454 467.46237835 173.45239258 464.91455078 C196.54685634 463.34324358 219.63751322 461.80721264 242.76171875 460.7421875 C243.6424235 460.70131138 244.52312824 460.66043526 245.43052101 460.61832047 C247.88802429 460.5060001 250.34566108 460.39795786 252.8034668 460.29248047 C253.49476622 460.26184887 254.18606564 460.23121727 254.89831352 460.19965744 C260.27881565 459.98099686 265.60110259 460 271 460 C271 491.35 271 522.7 271 555 C251.82907079 556.74281175 232.67075158 558.48018416 213.48266602 559.99291992 C211.2477348 560.17054931 209.01281598 560.34833482 206.77790833 560.52626038 C200.83324548 560.99899362 194.8883945 561.46931531 188.94348264 561.93890548 C185.21593327 562.23346951 181.48842874 562.52859473 177.76093864 562.82390785 C165.38974643 563.8040196 153.0184318 564.78256394 140.64694584 565.75896104 C139.98719639 565.81103076 139.32744694 565.86310047 138.64770508 565.91674805 C137.98712956 565.96888261 137.32655405 566.02101717 136.6459611 566.07473157 C125.87486002 566.92492024 115.1040757 567.77905349 104.33342315 568.63490387 C93.20194248 569.51938017 82.07022629 570.40084845 70.93827766 571.27941781 C64.71647785 571.77051219 58.49477906 572.26280852 52.27331734 572.75816917 C46.44479019 573.2221395 40.61597717 573.68233681 34.78692436 574.13965416 C32.65434987 574.30760322 30.52187973 574.47688361 28.38952637 574.64761734 C25.47203994 574.88100323 22.55420935 575.10950721 19.63624573 575.33683777 C18.38299896 575.43882383 18.38299896 575.43882383 17.10443407 575.54287022 C11.350961 575.98393392 5.81200029 576 0 576 C0 385.92 0 195.84 0 0 Z " fill="#D71E25" transform="translate(757,688)"/>
<path d="M0 0 C90.42 0 180.84 0 274 0 C274 32.34 274 64.68 274 98 C215.59 98 157.18 98 97 98 C97 138.59 97 179.18 97 221 C140.89 221 184.78 221 230 221 C230 253.67 230 286.34 230 320 C186.11 320 142.22 320 97 320 C97 392.93 97 465.86 97 541 C64.99 541 32.98 541 0 541 C0 362.47 0 183.94 0 0 Z " fill="#D71E25" transform="translate(1452,688)"/>
<path d="M0 0 C99.33 0 198.66 0 301 0 C301 32.34 301 64.68 301 98 C267.34 98 233.68 98 199 98 C199 245.84 199 393.68 199 546 C166.66 546.66 134.32 547.32 101 548 C101 399.5 101 251 101 98 C67.67 98 34.34 98 0 98 C0 65.66 0 33.32 0 0 Z " fill="#D71E25" transform="translate(1090,688)"/>
<path d="M0 0 C32.67 0 65.34 0 99 0 C99 150.15 99 300.3 99 455 C107.91 455 116.82 455 126 455 C131.86006125 455.19225477 137.70266979 455.41471898 143.5546875 455.734375 C145.09994984 455.81369492 146.64523899 455.89249386 148.19055176 455.9708252 C152.2518505 456.17872651 156.31260562 456.39577288 160.37328339 456.61543274 C162.90509711 456.75161892 165.43704454 456.88498429 167.96905518 457.01745605 C200.33512351 458.71194532 232.66405605 460.79169163 265 463 C265 495.01 265 527.02 265 560 C256.19879336 560 247.59691947 559.98797224 238.84912109 559.42089844 C237.83376313 559.35897497 236.81840517 559.29705151 235.77227879 559.23325157 C233.58370498 559.0992894 231.39525434 558.96330211 229.20692253 558.82544327 C225.66925927 558.60281909 222.1312753 558.386099 218.59315491 558.17086792 C213.5009582 557.86089677 208.40887255 557.54919192 203.31686401 557.23614502 C189.87774796 556.41172997 176.43733689 555.60924953 162.99609375 554.8203125 C161.98133103 554.7607419 161.98133103 554.7607419 160.94606805 554.69996786 C133.78657433 553.10800689 106.61944918 551.7705881 79.4375 550.625 C77.56622161 550.54524276 75.69494473 550.46545006 73.82366943 550.38562012 C68.50638708 550.15983371 63.18880594 549.94195534 57.87109375 549.7265625 C57.12780382 549.69583523 56.38451389 549.66510796 55.61870003 549.63344955 C37.08484713 548.87400316 18.54422606 548.48800595 0 548 C0 367.16 0 186.32 0 0 Z " fill="#D81F25" transform="translate(1785,688)"/>
<path d="M0 0 C31.68 0 63.36 0 96 0 C96 189.42 96 378.84 96 574 C75.29979487 572.8499886 75.29979487 572.8499886 65.52734375 572.09765625 C64.43571426 572.01503036 63.34408478 571.93240448 62.21937561 571.84727478 C58.7919531 571.58736928 55.36472976 571.32493345 51.9375 571.0625 C49.67774606 570.89112192 47.41798047 570.71989736 45.15820312 570.54882812 C42.90623902 570.37774859 40.65428556 570.20652894 38.40234375 570.03515625 C37.42853256 569.96112076 36.45472137 569.88708527 35.45140076 569.81080627 C23.63167206 568.90519087 11.81681506 567.9453452 0 567 C0 379.89 0 192.78 0 0 Z " fill="#D81E25" transform="translate(2131,688)"/>
</svg>
